<mxfile
  host="Electron" 
  agent="Mozilla/5.0 (Macintosh; Intel Mac OS X 10_15_7) AppleWebKit/537.36 (KHTML, like Gecko) draw.io/25.0.2 Chrome/128.0.6613.186 Electron/32.2.5 Safari/537.36" 
  version="25.0.2"
  >
  <diagram
    name="reactiac-website"
    >
    <mxGraphModel
      grid="1" 
      gridSize="10" 
      guides="1" 
      tooltips="1" 
      connect="1" 
      arrows="1" 
      fold="1" 
      page="1" 
      pageScale="1" 
      pageWidth="1" 
      pageHeight="1" 
      math="0" 
      shadow="0"
      >
      <root>
        <mxCell
          id="page"
          />
        <mxCell
          id="root" 
          parent="page"
          />
        <mxCell
          style="align=center;strokeColor=none;verticalAlign=top;aspect=fixed" 
          id="app" 
          parent="root" 
          value="ReactIAC Website" 
          vertex="1"
          >
          <mxGeometry
            as="geometry" 
            width="660" 
            height="600" 
            x="0" 
            y="0"
            />
          </mxCell>
        <mxCell
          style="shape=mxgraph.aws4.client;fillColor=#000000;verticalLabelPosition=bottom;verticalAlign=top;align=center;aspect=fixed" 
          id="client" 
          parent="app" 
          value="Client" 
          vertex="1"
          >
          <mxGeometry
            as="geometry" 
            width="60" 
            height="60" 
            x="30" 
            y="180"
            />
          </mxCell>
        <mxCell
          style="shape=mxgraph.aws4.group;align=left;spacingLeft=30;verticalAlign=top;aspect=fixed;grIcon=mxgraph.aws4.group_aws_cloud_alt" 
          id="aws_cloud_cloud" 
          parent="app" 
          value="Cloud" 
          vertex="1"
          >
          <mxGeometry
            as="geometry" 
            width="510" 
            height="540" 
            x="120" 
            y="30"
            />
          </mxCell>
        <mxCell
          style="shape=mxgraph.aws4.group;align=left;spacingLeft=30;verticalAlign=top;aspect=fixed;grIcon=mxgraph.aws4.group_region;strokeColor=#00A4A6;fontColor=#00A4A6" 
          id="aws_region_globalregion" 
          parent="aws_cloud_cloud" 
          value="Global Region" 
          vertex="1"
          >
          <mxGeometry
            as="geometry" 
            width="450" 
            height="480" 
            x="30" 
            y="30"
            />
          </mxCell>
        <mxCell
          style="align=center;spacingLeft=5;spacingRight=5;spacingBottom=5;verticalAlign=top;aspect=fixed" 
          id="sites" 
          parent="aws_region_globalregion" 
          value="Sites" 
          vertex="1"
          >
          <mxGeometry
            as="geometry" 
            width="390" 
            height="240" 
            x="30" 
            y="30"
            />
          </mxCell>
        <mxCell
          style="align=center;spacingLeft=5;spacingRight=5;spacingBottom=5;verticalAlign=top;aspect=fixed;noLabel=1;opacity=0" 
          id="site_www" 
          parent="sites" 
          value="Site" 
          vertex="1"
          >
          <mxGeometry
            as="geometry" 
            width="90" 
            height="180" 
            x="30" 
            y="30"
            />
          </mxCell>
        <mxCell
          style="shape=mxgraph.aws4.cloudfront;fillColor=#8C4FFF;verticalLabelPosition=bottom;verticalAlign=top;align=center;aspect=fixed;strokeColor=#8C4FFF;fontColor=#8C4FFF" 
          id="aws_cloudfront_distribution_www" 
          parent="site_www" 
          value="WWW" 
          vertex="1"
          >
          <mxGeometry
            as="geometry" 
            width="60" 
            height="60" 
            x="0" 
            y="0"
            />
          </mxCell>
        <mxCell
          style="shape=mxgraph.aws4.bucket;fillColor=#7AA116;verticalLabelPosition=bottom;verticalAlign=top;align=center;aspect=fixed;strokeColor=#7AA116;fontColor=#7AA116" 
          id="aws_s3_bucket_wwwv1_v1" 
          parent="site_www" 
          value="www-v1" 
          vertex="1"
          >
          <mxGeometry
            as="geometry" 
            width="60" 
            height="60" 
            x="0" 
            y="120"
            />
          </mxCell>
        <mxCell
          style="align=center;spacingLeft=5;spacingRight=5;spacingBottom=5;verticalAlign=top;aspect=fixed;noLabel=1;opacity=0" 
          id="site_play" 
          parent="sites" 
          value="Site" 
          vertex="1"
          >
          <mxGeometry
            as="geometry" 
            width="90" 
            height="180" 
            x="150" 
            y="30"
            />
          </mxCell>
        <mxCell
          style="shape=mxgraph.aws4.cloudfront;fillColor=#8C4FFF;verticalLabelPosition=bottom;verticalAlign=top;align=center;aspect=fixed;strokeColor=#8C4FFF;fontColor=#8C4FFF" 
          id="aws_cloudfront_distribution_play" 
          parent="site_play" 
          value="play" 
          vertex="1"
          >
          <mxGeometry
            as="geometry" 
            width="60" 
            height="60" 
            x="0" 
            y="0"
            />
          </mxCell>
        <mxCell
          style="shape=mxgraph.aws4.bucket;fillColor=#7AA116;verticalLabelPosition=bottom;verticalAlign=top;align=center;aspect=fixed;strokeColor=#7AA116;fontColor=#7AA116" 
          id="aws_s3_bucket_playv1_v1" 
          parent="site_play" 
          value="play-v1" 
          vertex="1"
          >
          <mxGeometry
            as="geometry" 
            width="60" 
            height="60" 
            x="0" 
            y="120"
            />
          </mxCell>
        <mxCell
          style="align=center;spacingLeft=5;spacingRight=5;spacingBottom=5;verticalAlign=top;aspect=fixed;noLabel=1;opacity=0" 
          id="site_cdn" 
          parent="sites" 
          value="Site" 
          vertex="1"
          >
          <mxGeometry
            as="geometry" 
            width="90" 
            height="180" 
            x="270" 
            y="30"
            />
          </mxCell>
        <mxCell
          style="shape=mxgraph.aws4.cloudfront;fillColor=#8C4FFF;verticalLabelPosition=bottom;verticalAlign=top;align=center;aspect=fixed;strokeColor=#8C4FFF;fontColor=#8C4FFF" 
          id="aws_cloudfront_distribution_cdn" 
          parent="site_cdn" 
          value="cdn" 
          vertex="1"
          >
          <mxGeometry
            as="geometry" 
            width="60" 
            height="60" 
            x="0" 
            y="0"
            />
          </mxCell>
        <mxCell
          style="shape=mxgraph.aws4.bucket;fillColor=#7AA116;verticalLabelPosition=bottom;verticalAlign=top;align=center;aspect=fixed;strokeColor=#7AA116;fontColor=#7AA116" 
          id="aws_s3_bucket_cdnv1_v1" 
          parent="site_cdn" 
          value="cdn-v1" 
          vertex="1"
          >
          <mxGeometry
            as="geometry" 
            width="60" 
            height="60" 
            x="0" 
            y="120"
            />
          </mxCell>
        <mxCell
          style="align=center;spacingLeft=5;spacingRight=5;spacingBottom=5;verticalAlign=top;aspect=fixed" 
          id="shared" 
          parent="aws_region_globalregion" 
          value="Shared" 
          vertex="1"
          >
          <mxGeometry
            as="geometry" 
            width="390" 
            height="120" 
            x="30" 
            y="330"
            />
          </mxCell>
        <mxCell
          style="shape=mxgraph.aws4.route_53;fillColor=#8C4FFF;verticalLabelPosition=bottom;verticalAlign=top;align=center;aspect=fixed;strokeColor=#8C4FFF;fontColor=#8C4FFF" 
          id="aws_route53_zone_reactiacdev" 
          parent="shared" 
          value="reactiac.dev" 
          vertex="1"
          >
          <mxGeometry
            as="geometry" 
            width="60" 
            height="60" 
            x="30" 
            y="30"
            />
          </mxCell>
        <mxCell
          style="shape=mxgraph.aws4.certificate_manager;fillColor=#7AA116;verticalLabelPosition=bottom;verticalAlign=top;align=center;aspect=fixed;strokeColor=#7AA116;fontColor=#7AA116" 
          id="aws_acm_certificate_reactiacdev" 
          parent="shared" 
          value="reactiac.dev" 
          vertex="1"
          >
          <mxGeometry
            as="geometry" 
            width="60" 
            height="60" 
            x="120" 
            y="30"
            />
          </mxCell>
        <mxCell
          style="shape=mxgraph.aws4.bucket;fillColor=#7AA116;verticalLabelPosition=bottom;verticalAlign=top;align=center;aspect=fixed;strokeColor=#7AA116;fontColor=#7AA116" 
          id="aws_s3_bucket_tfstate" 
          parent="shared" 
          value="tf-state" 
          vertex="1"
          >
          <mxGeometry
            as="geometry" 
            width="60" 
            height="60" 
            x="210" 
            y="30"
            />
          </mxCell>
        <mxCell
          style="shape=mxgraph.aws4.bucket;fillColor=#7AA116;verticalLabelPosition=bottom;verticalAlign=top;align=center;aspect=fixed;strokeColor=#7AA116;fontColor=#7AA116" 
          id="aws_s3_bucket_logs" 
          parent="shared" 
          value="logs" 
          vertex="1"
          >
          <mxGeometry
            as="geometry" 
            width="60" 
            height="60" 
            x="300" 
            y="30"
            />
          </mxCell>
        <mxCell
          id="dependency" 
          source="sites" 
          target="aws_s3_bucket_logs" 
          parent="root" 
          edge="1" 
          style="edgeStyle=orthogonalEdgeStyle;rounded=1;orthogonalLoop=1;jettySize=auto;html=1;dashed=1;startArrow=none;startFill=0;endArrow=block;endFill=1"
          >
          <mxGeometry
            relative="1" 
            as="geometry"
            >
            <Array
              as="points"
              >
              <mxPoint
                x="510" 
                y="375"
                />
              <mxPoint
                x="510" 
                y="375"
                />
              </Array>
            </mxGeometry>
          </mxCell>
        <mxCell
          id="dependency_2" 
          source="aws_cloudfront_distribution_www" 
          target="aws_s3_bucket_wwwv1_v1" 
          parent="root" 
          edge="1" 
          style="edgeStyle=orthogonalEdgeStyle;rounded=1;orthogonalLoop=1;jettySize=auto;html=1;startArrow=none;startFill=0;endArrow=block;endFill=1"
          >
          <mxGeometry
            relative="1" 
            as="geometry"
            >
            <Array
              as="points"
              >
              <mxPoint
                x="240" 
                y="210"
                />
              <mxPoint
                x="240" 
                y="210"
                />
              </Array>
            </mxGeometry>
          </mxCell>
        <mxCell
          id="dependency_3" 
          source="aws_cloudfront_distribution_play" 
          target="aws_s3_bucket_playv1_v1" 
          parent="root" 
          edge="1" 
          style="edgeStyle=orthogonalEdgeStyle;rounded=1;orthogonalLoop=1;jettySize=auto;html=1;startArrow=none;startFill=0;endArrow=block;endFill=1"
          >
          <mxGeometry
            relative="1" 
            as="geometry"
            >
            <Array
              as="points"
              >
              <mxPoint
                x="360" 
                y="210"
                />
              <mxPoint
                x="360" 
                y="210"
                />
              </Array>
            </mxGeometry>
          </mxCell>
        <mxCell
          id="dependency_4" 
          source="aws_cloudfront_distribution_cdn" 
          target="aws_s3_bucket_cdnv1_v1" 
          parent="root" 
          edge="1" 
          style="edgeStyle=orthogonalEdgeStyle;rounded=1;orthogonalLoop=1;jettySize=auto;html=1;startArrow=none;startFill=0;endArrow=block;endFill=1"
          >
          <mxGeometry
            relative="1" 
            as="geometry"
            >
            <Array
              as="points"
              >
              <mxPoint
                x="480" 
                y="210"
                />
              <mxPoint
                x="480" 
                y="210"
                />
              </Array>
            </mxGeometry>
          </mxCell>
        <mxCell
          id="dependency_5" 
          source="client" 
          target="sites" 
          parent="root" 
          edge="1" 
          style="edgeStyle=orthogonalEdgeStyle;rounded=1;orthogonalLoop=1;jettySize=auto;html=1;startArrow=none;startFill=0;endArrow=block;endFill=1"
          >
          <mxGeometry
            relative="1" 
            as="geometry"
            >
            <Array
              as="points"
              >
              <mxPoint
                x="135" 
                y="210"
                />
              <mxPoint
                x="135" 
                y="210"
                />
              </Array>
            </mxGeometry>
          </mxCell>
        </root>
      </mxGraphModel>
    </diagram>
  </mxfile>